<svg width="604" height="22" viewBox="0 0 604 22" fill="none" xmlns="http://www.w3.org/2000/svg">
<mask id="path-1-outside-1_72_19" maskUnits="userSpaceOnUse" x="0" y="0" width="604" height="22" fill="black">
<rect fill="white" width="604" height="22"/>
<path d="M2 12C2 6.47715 6.47715 2 12 2H592C597.523 2 602 6.47715 602 12V22H2V12Z"/>
</mask>
<path d="M2 12C2 6.47715 6.47715 2 12 2H592C597.523 2 602 6.47715 602 12V22H2V12Z" fill="white"/>
<path d="M0 12C0 5.37258 5.37258 0 12 0H592C598.627 0 604 5.37258 604 12H600C600 7.58172 596.418 4 592 4H12C7.58172 4 4 7.58172 4 12H0ZM602 22H2H602ZM0 22V12C0 5.37258 5.37258 0 12 0V4C7.58172 4 4 7.58172 4 12V22H0ZM592 0C598.627 0 604 5.37258 604 12V22H600V12C600 7.58172 596.418 4 592 4V0Z" fill="#18DAEF" mask="url(#path-1-outside-1_72_19)"/>
<ellipse cx="21" cy="12.3931" rx="3.5" ry="3.46436" fill="#18DAEF"/>
<ellipse cx="36" cy="12.3931" rx="3.5" ry="3.46436" fill="#18DAEF"/>
<ellipse cx="51" cy="12.3931" rx="3.5" ry="3.46436" fill="#18DAEF"/>
</svg>
