<svg width="1920" height="135" viewBox="0 0 1920 135" fill="none" xmlns="http://www.w3.org/2000/svg">
<path d="M2.0371 2.24234e-06L-64 66.0522L2.03714 132.104L68.0742 66.0522L2.0371 2.24234e-06Z" fill="#FFFF00"/>
<path d="M134.037 2.24234e-06L68 66.0522L134.037 132.104L200.074 66.0522L134.037 2.24234e-06Z" fill="#FFFF00"/>
<path d="M266.037 2L200 68.0522L266.037 134.104L332.074 68.0522L266.037 2Z" fill="#FFFF00"/>
<path d="M398.037 2L332 68.0522L398.037 134.104L464.074 68.0522L398.037 2Z" fill="#FFFF00"/>
<path d="M530.037 2L464 68.0522L530.037 134.104L596.074 68.0522L530.037 2Z" fill="#FFFF00"/>
<path d="M662.037 2L596 68.0522L662.037 134.104L728.074 68.0522L662.037 2Z" fill="#FFFF00"/>
<path d="M794.037 2L728 68.0522L794.037 134.104L860.074 68.0522L794.037 2Z" fill="#FFFF00"/>
<path d="M926.037 2L860 68.0522L926.037 134.104L992.074 68.0522L926.037 2Z" fill="#FFFF00"/>
<path d="M1058.04 2L992 68.0522L1058.04 134.104L1124.07 68.0522L1058.04 2Z" fill="#FFFF00"/>
<path d="M1190.04 2L1124 68.0522L1190.04 134.104L1256.07 68.0522L1190.04 2Z" fill="#FFFF00"/>
<path d="M1322.04 2.24234e-06L1256 66.0522L1322.04 132.104L1388.07 66.0522L1322.04 2.24234e-06Z" fill="#FFFF00"/>
<path d="M1454.04 2.24234e-06L1388 66.0522L1454.04 132.104L1520.07 66.0522L1454.04 2.24234e-06Z" fill="#FFFF00"/>
<path d="M1586.04 2.24234e-06L1520 66.0522L1586.04 132.104L1652.07 66.0522L1586.04 2.24234e-06Z" fill="#FFFF00"/>
<path d="M1722.04 2.24234e-06L1656 66.0522L1722.04 132.104L1788.07 66.0522L1722.04 2.24234e-06Z" fill="#FFFF00"/>
<path d="M1854.04 2L1788 68.0522L1854.04 134.104L1920.07 68.0522L1854.04 2Z" fill="#FFFF00"/>
</svg>
